<svg xmlns="http://www.w3.org/2000/svg" width="1200" height="630" viewBox="0 0 1200 630">
  <defs>
    <linearGradient id="og-bg" x1="0%" y1="0%" x2="100%" y2="100%">
      <stop offset="0%" stop-color="#1E3A8A"/>
      <stop offset="50%" stop-color="#2563EB"/>
      <stop offset="100%" stop-color="#1E3A8A"/>
    </linearGradient>
    <linearGradient id="flame" x1="0%" y1="0%" x2="0%" y2="100%">
      <stop offset="0%" stop-color="#FFF"/>
      <stop offset="100%" stop-color="#93C5FD"/>
    </linearGradient>
  </defs>
  <!-- Background -->
  <rect width="1200" height="630" fill="url(#og-bg)"/>
  <!-- Decorative circles -->
  <circle cx="100" cy="100" r="200" fill="#2563EB" opacity="0.15"/>
  <circle cx="1100" cy="530" r="250" fill="#1E3A8A" opacity="0.2"/>
  <circle cx="600" cy="315" r="180" fill="#3B82F6" opacity="0.08"/>
  <!-- Flame icon -->
  <g transform="translate(160, 200) scale(1.8)">
    <path d="M32 12C28 22 20 26 20 34C20 40.6 25.4 46 32 46C38.6 46 44 40.6 44 34C44 26 36 22 32 12Z" fill="url(#flame)" opacity="0.95"/>
    <path d="M32 18C29.5 25 24 28 24 34C24 38.4 27.6 42 32 42C36.4 42 40 38.4 40 34C40 28 34.5 25 32 18Z" fill="#FFF" opacity="0.6"/>
    <rect x="30" y="34" width="4" height="14" rx="2" fill="#1E3A8A"/>
    <rect x="24" y="36" width="4" height="12" rx="2" fill="#1E3A8A" transform="rotate(-30 26 42)"/>
    <rect x="36" y="36" width="4" height="12" rx="2" fill="#1E3A8A" transform="rotate(30 38 42)"/>
  </g>
  <!-- Text content -->
  <text x="240" y="300" font-family="Arial, Helvetica, sans-serif" font-size="72" font-weight="800" fill="#FFFFFF">Fuel Prep</text>
  <text x="240" y="370" font-family="Arial, Helvetica, sans-serif" font-size="32" font-weight="400" fill="#93C5FD">Meal Planning Made Easy</text>
  <text x="240" y="420" font-family="Arial, Helvetica, sans-serif" font-size="22" font-weight="500" fill="#BFDBFE">Fuel Your Fitness Without Breaking Your Budget</text>
  <!-- Bottom bar -->
  <rect x="0" y="590" width="1200" height="40" fill="#1E3A8A" opacity="0.5"/>
  <text x="600" y="616" font-family="Arial, Helvetica, sans-serif" font-size="18" font-weight="400" fill="#93C5FD" text-anchor="middle">fuelprep.app</text>
</svg>